M48
;Layer_Color=9474304
;FILE_FORMAT=4:4
METRIC,LZ
;TYPE=PLATED
T1F00S00C0.3000
T2F00S00C0.6000
T3F00S00C0.7000
T4F00S00C0.8000
T5F00S00C1.0000
;TYPE=NON_PLATED
T6F00S00C2.3000
%
T01
X00292Y0015
X0047Y00152
X00487Y00086
Y00045
X00463Y00017
X00586Y00023
X00656Y00075
X00722Y00079
Y00112
X0071
X00735Y00134
X00635Y0015
Y0026
X0047Y00259
X00292Y00263
T02
X0004Y00317
Y00337
T03
X00612Y00031
X00631Y00017
X00647
X00667
X00683
X00743Y00055
X00732Y00067
X0067Y00133
X00653
X00612Y00112
X00586897Y00179958
X00571009Y00171598
X00553055Y00171582
X00597079Y00194745
X00599221Y0021257
X0059283Y00229348
X00579374Y00241233
X00562Y002455
X00544568Y00241202
X00681132Y00229294
X00674772Y00212505
X00676944Y00194683
X00687152Y00179914
X00703055Y00171582
X00721009Y00171598
X00736897Y00179958
X00747079Y00194745
X00749221Y0021257
X0074283Y00229348
X00729374Y00241233
X00712Y002455
X00694568Y00241202
X00531132Y00229294
X00524772Y00212505
X00526944Y00194683
X00537152Y00179914
X00386897Y00179958
X00371009Y00171598
X00353055Y00171582
X00337152Y00179914
X00326944Y00194683
X00324772Y00212505
X00331132Y00229294
X00344568Y00241202
X00362Y002455
X00379374Y00241233
X0039283Y00229348
X00399221Y0021257
X00397079Y00194745
X00247079
X00249221Y0021257
X0024283Y00229348
X00229374Y00241233
X00212Y002455
X00194568Y00241202
X00181132Y00229294
X00174772Y00212505
X00176944Y00194683
X00187152Y00179914
X00203055Y00171582
X00221009Y00171598
X00236897Y00179958
T04
X002851Y000469
X003105
X003359
X003613
X003867
X004121
X004375
X004629
Y001231
X004375
X004121
X003867
X003613
X003359
X003105
X002851
X00583Y003135
Y003385
Y003635
X00675Y003642
Y003392
Y003142
X00722Y003135
Y003385
Y003635
X00536Y003642
Y003392
Y003142
X00444Y003135
Y003385
Y003635
X00397Y003642
Y003392
Y003142
X00305Y003135
Y003385
Y003635
X00258Y003642
Y003392
Y003142
T05
X00165Y002837
X00205Y00285
Y00385
X00165Y003883
X00099Y00275
X000736
X000482
T06
X0003Y0004
X0082
Y0038
X0003
M30
