G04*
G04 #@! TF.GenerationSoftware,Altium Limited,Altium Designer,21.0.9 (235)*
G04*
G04 Layer_Color=8388736*
%FSLAX44Y44*%
%MOMM*%
G71*
G04*
G04 #@! TF.SameCoordinates,956DCEC2-6A71-40FF-A827-D54B518B5B98*
G04*
G04*
G04 #@! TF.FilePolarity,Negative*
G04*
G01*
G75*
%ADD10C,1.5032*%
%ADD11C,1.4032*%
%ADD12C,1.2032*%
%ADD13C,1.7032*%
%ADD14C,2.2032*%
%ADD15C,2.5032*%
%ADD16R,2.2032X2.2032*%
D10*
X722000Y363500D02*
D03*
Y338500D02*
D03*
Y313500D02*
D03*
X583000Y363500D02*
D03*
Y338500D02*
D03*
Y313500D02*
D03*
X444000Y363500D02*
D03*
Y338500D02*
D03*
Y313500D02*
D03*
X305000Y363500D02*
D03*
Y338500D02*
D03*
Y313500D02*
D03*
X675000Y364200D02*
D03*
Y339200D02*
D03*
Y314200D02*
D03*
X536000Y364200D02*
D03*
Y339200D02*
D03*
Y314200D02*
D03*
X397000Y364200D02*
D03*
Y339200D02*
D03*
Y314200D02*
D03*
X258000Y364200D02*
D03*
Y339200D02*
D03*
Y314200D02*
D03*
X285100Y123100D02*
D03*
X310500D02*
D03*
X335900D02*
D03*
X361300D02*
D03*
X386700D02*
D03*
X412100D02*
D03*
X437500D02*
D03*
X462900D02*
D03*
Y46900D02*
D03*
X437500D02*
D03*
X412100D02*
D03*
X386700D02*
D03*
X361300D02*
D03*
X335900D02*
D03*
X310500D02*
D03*
X285100D02*
D03*
D11*
X229374Y241233D02*
D03*
X242830Y229348D02*
D03*
X249221Y212570D02*
D03*
X247079Y194745D02*
D03*
X236897Y179958D02*
D03*
X221009Y171598D02*
D03*
X203055Y171582D02*
D03*
X187152Y179914D02*
D03*
X176944Y194683D02*
D03*
X174772Y212505D02*
D03*
X181132Y229294D02*
D03*
X194568Y241202D02*
D03*
X212000Y245500D02*
D03*
X362000D02*
D03*
X344568Y241202D02*
D03*
X331132Y229294D02*
D03*
X324772Y212505D02*
D03*
X326944Y194683D02*
D03*
X337152Y179914D02*
D03*
X353055Y171582D02*
D03*
X371009Y171598D02*
D03*
X386897Y179958D02*
D03*
X397079Y194745D02*
D03*
X399221Y212570D02*
D03*
X392830Y229348D02*
D03*
X379374Y241233D02*
D03*
X579374D02*
D03*
X592830Y229348D02*
D03*
X599221Y212570D02*
D03*
X597079Y194745D02*
D03*
X586897Y179958D02*
D03*
X571009Y171598D02*
D03*
X553055Y171582D02*
D03*
X537152Y179914D02*
D03*
X526944Y194683D02*
D03*
X524772Y212505D02*
D03*
X531132Y229294D02*
D03*
X544568Y241202D02*
D03*
X562000Y245500D02*
D03*
X712000D02*
D03*
X694568Y241202D02*
D03*
X681132Y229294D02*
D03*
X674772Y212505D02*
D03*
X676944Y194683D02*
D03*
X687152Y179914D02*
D03*
X703055Y171582D02*
D03*
X721009Y171598D02*
D03*
X736897Y179958D02*
D03*
X747079Y194745D02*
D03*
X749221Y212570D02*
D03*
X742830Y229348D02*
D03*
X729374Y241233D02*
D03*
X683000Y17000D02*
D03*
X743000Y55000D02*
D03*
X631000Y17000D02*
D03*
X667000D02*
D03*
X647000D02*
D03*
X732000Y67000D02*
D03*
X612000Y31000D02*
D03*
X653000Y133000D02*
D03*
X612000Y112000D02*
D03*
X670000Y133000D02*
D03*
D12*
X40000Y337000D02*
D03*
Y317000D02*
D03*
D13*
X205000Y385000D02*
D03*
Y285000D02*
D03*
D14*
X48200Y275000D02*
D03*
X99000D02*
D03*
X73600D02*
D03*
X165000Y283700D02*
D03*
D15*
X820000Y380000D02*
D03*
Y40000D02*
D03*
X30000D02*
D03*
Y380000D02*
D03*
D16*
X165000Y388300D02*
D03*
M02*
