G04*
G04 #@! TF.GenerationSoftware,Altium Limited,Altium Designer,21.0.9 (235)*
G04*
G04 Layer_Color=16711935*
%FSLAX44Y44*%
%MOMM*%
G71*
G04*
G04 #@! TF.SameCoordinates,956DCEC2-6A71-40FF-A827-D54B518B5B98*
G04*
G04*
G04 #@! TF.FilePolarity,Negative*
G04*
G01*
G75*
%ADD10C,1.5032*%
%ADD11C,1.4032*%
%ADD12C,1.2032*%
%ADD13C,1.7032*%
%ADD14C,2.2032*%
%ADD15C,2.5032*%
%ADD16R,2.2032X2.2032*%
%ADD49R,0.8432X0.8432*%
%ADD50R,0.8432X0.8432*%
%ADD51R,1.2032X2.6032*%
%ADD52R,3.5032X2.6032*%
%ADD53R,1.1032X0.9032*%
%ADD54R,5.6032X5.6032*%
G04:AMPARAMS|DCode=55|XSize=0.4532mm|YSize=1.2032mm|CornerRadius=0.1329mm|HoleSize=0mm|Usage=FLASHONLY|Rotation=180.000|XOffset=0mm|YOffset=0mm|HoleType=Round|Shape=RoundedRectangle|*
%AMROUNDEDRECTD55*
21,1,0.4532,0.9375,0,0,180.0*
21,1,0.1875,1.2032,0,0,180.0*
1,1,0.2657,-0.0938,0.4688*
1,1,0.2657,0.0938,0.4688*
1,1,0.2657,0.0938,-0.4688*
1,1,0.2657,-0.0938,-0.4688*
%
%ADD55ROUNDEDRECTD55*%
%ADD56R,0.4532X1.2032*%
G04:AMPARAMS|DCode=57|XSize=0.4532mm|YSize=1.2032mm|CornerRadius=0.1329mm|HoleSize=0mm|Usage=FLASHONLY|Rotation=90.000|XOffset=0mm|YOffset=0mm|HoleType=Round|Shape=RoundedRectangle|*
%AMROUNDEDRECTD57*
21,1,0.4532,0.9375,0,0,90.0*
21,1,0.1875,1.2032,0,0,90.0*
1,1,0.2657,0.4688,0.0938*
1,1,0.2657,0.4688,-0.0938*
1,1,0.2657,-0.4688,-0.0938*
1,1,0.2657,-0.4688,0.0938*
%
%ADD57ROUNDEDRECTD57*%
%ADD58R,1.2032X0.4532*%
%ADD59R,0.7532X0.8032*%
%ADD60R,0.9532X0.8032*%
%ADD61R,1.7032X0.9032*%
%ADD62R,0.3032X0.3032*%
%ADD63R,2.5782X2.1032*%
%ADD64R,1.3782X2.1032*%
%ADD65R,1.6782X2.3032*%
%ADD66R,0.6532X1.5832*%
G04:AMPARAMS|DCode=67|XSize=6.0032mm|YSize=2.2032mm|CornerRadius=0.6016mm|HoleSize=0mm|Usage=FLASHONLY|Rotation=180.000|XOffset=0mm|YOffset=0mm|HoleType=Round|Shape=RoundedRectangle|*
%AMROUNDEDRECTD67*
21,1,6.0032,1.0000,0,0,180.0*
21,1,4.8000,2.2032,0,0,180.0*
1,1,1.2032,-2.4000,0.5000*
1,1,1.2032,2.4000,0.5000*
1,1,1.2032,2.4000,-0.5000*
1,1,1.2032,-2.4000,-0.5000*
%
%ADD67ROUNDEDRECTD67*%
D10*
X722000Y363500D02*
D03*
Y338500D02*
D03*
Y313500D02*
D03*
X583000Y363500D02*
D03*
Y338500D02*
D03*
Y313500D02*
D03*
X444000Y363500D02*
D03*
Y338500D02*
D03*
Y313500D02*
D03*
X305000Y363500D02*
D03*
Y338500D02*
D03*
Y313500D02*
D03*
X675000Y364200D02*
D03*
Y339200D02*
D03*
Y314200D02*
D03*
X536000Y364200D02*
D03*
Y339200D02*
D03*
Y314200D02*
D03*
X397000Y364200D02*
D03*
Y339200D02*
D03*
Y314200D02*
D03*
X258000Y364200D02*
D03*
Y339200D02*
D03*
Y314200D02*
D03*
X285100Y123100D02*
D03*
X310500D02*
D03*
X335900D02*
D03*
X361300D02*
D03*
X386700D02*
D03*
X412100D02*
D03*
X437500D02*
D03*
X462900D02*
D03*
Y46900D02*
D03*
X437500D02*
D03*
X412100D02*
D03*
X386700D02*
D03*
X361300D02*
D03*
X335900D02*
D03*
X310500D02*
D03*
X285100D02*
D03*
D11*
X229374Y241233D02*
D03*
X242830Y229348D02*
D03*
X249221Y212570D02*
D03*
X247079Y194745D02*
D03*
X236897Y179958D02*
D03*
X221009Y171598D02*
D03*
X203055Y171582D02*
D03*
X187152Y179914D02*
D03*
X176944Y194683D02*
D03*
X174772Y212505D02*
D03*
X181132Y229294D02*
D03*
X194568Y241202D02*
D03*
X212000Y245500D02*
D03*
X362000D02*
D03*
X344568Y241202D02*
D03*
X331132Y229294D02*
D03*
X324772Y212505D02*
D03*
X326944Y194683D02*
D03*
X337152Y179914D02*
D03*
X353055Y171582D02*
D03*
X371009Y171598D02*
D03*
X386897Y179958D02*
D03*
X397079Y194745D02*
D03*
X399221Y212570D02*
D03*
X392830Y229348D02*
D03*
X379374Y241233D02*
D03*
X579374D02*
D03*
X592830Y229348D02*
D03*
X599221Y212570D02*
D03*
X597079Y194745D02*
D03*
X586897Y179958D02*
D03*
X571009Y171598D02*
D03*
X553055Y171582D02*
D03*
X537152Y179914D02*
D03*
X526944Y194683D02*
D03*
X524772Y212505D02*
D03*
X531132Y229294D02*
D03*
X544568Y241202D02*
D03*
X562000Y245500D02*
D03*
X712000D02*
D03*
X694568Y241202D02*
D03*
X681132Y229294D02*
D03*
X674772Y212505D02*
D03*
X676944Y194683D02*
D03*
X687152Y179914D02*
D03*
X703055Y171582D02*
D03*
X721009Y171598D02*
D03*
X736897Y179958D02*
D03*
X747079Y194745D02*
D03*
X749221Y212570D02*
D03*
X742830Y229348D02*
D03*
X729374Y241233D02*
D03*
X683000Y17000D02*
D03*
X743000Y55000D02*
D03*
X631000Y17000D02*
D03*
X667000D02*
D03*
X647000D02*
D03*
X732000Y67000D02*
D03*
X612000Y31000D02*
D03*
X653000Y133000D02*
D03*
X612000Y112000D02*
D03*
X670000Y133000D02*
D03*
D12*
X40000Y337000D02*
D03*
Y317000D02*
D03*
D13*
X205000Y385000D02*
D03*
Y285000D02*
D03*
D14*
X48200Y275000D02*
D03*
X99000D02*
D03*
X73600D02*
D03*
X165000Y283700D02*
D03*
D15*
X820000Y380000D02*
D03*
Y40000D02*
D03*
X30000D02*
D03*
Y380000D02*
D03*
D16*
X165000Y388300D02*
D03*
D49*
X538400Y14000D02*
D03*
X547600Y14000D02*
D03*
X719600Y55000D02*
D03*
X710400Y55000D02*
D03*
X719600Y45000D02*
D03*
X710400Y45000D02*
D03*
D50*
X387000Y21400D02*
D03*
X387000Y30600D02*
D03*
X503000Y20800D02*
D03*
X503000Y30000D02*
D03*
X710000Y132600D02*
D03*
X710000Y123400D02*
D03*
X731000Y54600D02*
D03*
X731000Y45400D02*
D03*
X698510Y132388D02*
D03*
X698510Y123188D02*
D03*
D51*
X570000Y36000D02*
D03*
X547000D02*
D03*
X524000D02*
D03*
D52*
X547000Y94000D02*
D03*
D53*
X258000Y295500D02*
D03*
Y282500D02*
D03*
X397000Y295500D02*
D03*
Y282500D02*
D03*
X536000Y295500D02*
D03*
Y282500D02*
D03*
X675000Y295500D02*
D03*
Y282500D02*
D03*
X751000Y336000D02*
D03*
Y323000D02*
D03*
X612000Y336000D02*
D03*
Y323000D02*
D03*
X473000Y336000D02*
D03*
Y323000D02*
D03*
X334000Y336000D02*
D03*
Y323000D02*
D03*
X698000Y314000D02*
D03*
Y327000D02*
D03*
X559000Y314000D02*
D03*
Y327000D02*
D03*
X420000Y314000D02*
D03*
Y327000D02*
D03*
X281000Y314000D02*
D03*
Y327000D02*
D03*
X698000Y344500D02*
D03*
Y357500D02*
D03*
X559000Y344500D02*
D03*
Y357500D02*
D03*
X420000Y344500D02*
D03*
Y357500D02*
D03*
X281000Y344500D02*
D03*
Y357500D02*
D03*
X99000Y238500D02*
D03*
Y251500D02*
D03*
D54*
X656000Y75000D02*
D03*
D55*
X683500Y110000D02*
D03*
X628500D02*
D03*
Y40000D02*
D03*
X683500D02*
D03*
D56*
X678500Y110000D02*
D03*
X673500D02*
D03*
X668500D02*
D03*
X663500D02*
D03*
X658500D02*
D03*
X653500D02*
D03*
X648500D02*
D03*
X643500D02*
D03*
X638500D02*
D03*
X633500D02*
D03*
Y40000D02*
D03*
X638500D02*
D03*
X643500D02*
D03*
X648500D02*
D03*
X653500D02*
D03*
X658500D02*
D03*
X663500D02*
D03*
X668500D02*
D03*
X673500D02*
D03*
X678500D02*
D03*
D57*
X621000Y102500D02*
D03*
Y47500D02*
D03*
X691000D02*
D03*
Y102500D02*
D03*
D58*
X621000Y97500D02*
D03*
Y92500D02*
D03*
Y87500D02*
D03*
Y82500D02*
D03*
Y77500D02*
D03*
Y72500D02*
D03*
Y67500D02*
D03*
Y62500D02*
D03*
Y57500D02*
D03*
Y52500D02*
D03*
X691000D02*
D03*
Y57500D02*
D03*
Y62500D02*
D03*
Y67500D02*
D03*
Y72500D02*
D03*
Y77500D02*
D03*
Y82500D02*
D03*
Y87500D02*
D03*
Y92500D02*
D03*
Y97500D02*
D03*
D59*
X719750Y68000D02*
D03*
X710250D02*
D03*
D60*
X722000Y123500D02*
D03*
Y134500D02*
D03*
D61*
X707000Y32000D02*
D03*
Y22000D02*
D03*
D62*
X790000Y98000D02*
D03*
D63*
X126125Y395300D02*
D03*
X67875D02*
D03*
D64*
X105375D02*
D03*
X88625D02*
D03*
D65*
X72375Y372300D02*
D03*
X121625D02*
D03*
D66*
X110000Y368700D02*
D03*
X103500D02*
D03*
X97000D02*
D03*
X90500D02*
D03*
X84000D02*
D03*
D67*
Y306000D02*
D03*
Y344000D02*
D03*
M02*
