G04*
G04 #@! TF.GenerationSoftware,Altium Limited,Altium Designer,21.0.9 (235)*
G04*
G04 Layer_Color=16711935*
%FSLAX44Y44*%
%MOMM*%
G71*
G04*
G04 #@! TF.SameCoordinates,956DCEC2-6A71-40FF-A827-D54B518B5B98*
G04*
G04*
G04 #@! TF.FilePolarity,Positive*
G04*
G01*
G75*
%ADD68C,0.1000*%
%ADD69C,0.1016*%
%ADD70C,0.0250*%
%ADD71C,0.0254*%
D68*
X272000Y208000D02*
G03*
X272000Y208000I-60000J0D01*
G01*
X422000D02*
G03*
X422000Y208000I-60000J0D01*
G01*
X622000D02*
G03*
X622000Y208000I-60000J0D01*
G01*
X772000D02*
G03*
X772000Y208000I-60000J0D01*
G01*
X65000Y327000D02*
G03*
X65000Y327000I-25000J0D01*
G01*
X274200Y75000D02*
G03*
X274200Y95000I0J10000D01*
G01*
X113000Y325000D02*
G03*
X113000Y325000I-29000J0D01*
G01*
X0Y0D02*
Y410000D01*
X850000D01*
Y0D02*
Y410000D01*
X0Y0D02*
X850000D01*
D69*
X25000Y332000D02*
Y342000D01*
X20000Y337000D02*
X30000D01*
X185000Y390000D02*
X225000D01*
X185000Y280000D02*
Y390000D01*
X225000Y280000D02*
Y390000D01*
X185000Y280000D02*
X225000D01*
X21000Y224600D02*
X126200D01*
X21000Y66100D02*
Y224600D01*
X126200Y66100D02*
Y224600D01*
X21000Y66100D02*
X126200D01*
X274200Y45650D02*
Y124350D01*
Y45650D02*
X473800D01*
Y124350D01*
X274200D02*
X473800D01*
X255500Y284000D02*
X260500D01*
X255500D02*
Y294000D01*
X260500D01*
Y284000D02*
Y294000D01*
X394500Y284000D02*
X399500D01*
X394500D02*
Y294000D01*
X399500D01*
Y284000D02*
Y294000D01*
X533500Y284000D02*
X538500D01*
X533500D02*
Y294000D01*
X538500D01*
Y284000D02*
Y294000D01*
X672500Y284000D02*
X677500D01*
X672500D02*
Y294000D01*
X677500D01*
Y284000D02*
Y294000D01*
X727000Y17000D02*
X787000D01*
X727000D02*
Y37000D01*
X787000D01*
Y17000D02*
Y37000D01*
X748500Y324500D02*
Y334500D01*
Y324500D02*
X753500D01*
Y334500D01*
X748500D02*
X753500D01*
X609500Y324500D02*
Y334500D01*
Y324500D02*
X614500D01*
Y334500D01*
X609500D02*
X614500D01*
X470500Y324500D02*
Y334500D01*
Y324500D02*
X475500D01*
Y334500D01*
X470500D02*
X475500D01*
X331500Y324500D02*
Y334500D01*
Y324500D02*
X336500D01*
Y334500D01*
X331500D02*
X336500D01*
X700500Y315500D02*
Y325500D01*
X695500D02*
X700500D01*
X695500Y315500D02*
Y325500D01*
Y315500D02*
X700500D01*
X561500D02*
Y325500D01*
X556500D02*
X561500D01*
X556500Y315500D02*
Y325500D01*
Y315500D02*
X561500D01*
X422500D02*
Y325500D01*
X417500D02*
X422500D01*
X417500Y315500D02*
Y325500D01*
Y315500D02*
X422500D01*
X283500D02*
Y325500D01*
X278500D02*
X283500D01*
X278500Y315500D02*
Y325500D01*
Y315500D02*
X283500D01*
X700500Y346000D02*
Y356000D01*
X695500D02*
X700500D01*
X695500Y346000D02*
Y356000D01*
Y346000D02*
X700500D01*
X561500D02*
Y356000D01*
X556500D02*
X561500D01*
X556500Y346000D02*
Y356000D01*
Y346000D02*
X561500D01*
X422500D02*
Y356000D01*
X417500D02*
X422500D01*
X417500Y346000D02*
Y356000D01*
Y346000D02*
X422500D01*
X283500D02*
Y356000D01*
X278500D02*
X283500D01*
X278500Y346000D02*
Y356000D01*
Y346000D02*
X283500D01*
X101500Y240000D02*
Y250000D01*
X96500D02*
X101500D01*
X96500Y240000D02*
Y250000D01*
Y240000D02*
X101500D01*
D70*
X838400Y100500D02*
Y117500D01*
Y95500D02*
X838400Y81500D01*
D71*
X812000Y117500D02*
X838400Y117500D01*
X812000Y147500D02*
X838400Y147500D01*
X817000Y122500D02*
Y142500D01*
X843400Y142500D01*
X817000Y122500D02*
X843400Y122500D01*
Y142500D02*
Y169500D01*
X812000Y117500D02*
Y147500D01*
Y164500D02*
Y194500D01*
X843400Y216500D02*
X843400Y189500D01*
X789500Y72500D02*
X843400D01*
X789500D02*
X789500Y81500D01*
X799000Y216500D02*
X843400Y216500D01*
X799000Y211500D02*
Y216500D01*
X789500Y95500D02*
X838400Y95500D01*
X789500Y95500D02*
Y100500D01*
X838400Y100500D01*
X843400Y72500D02*
Y122500D01*
X789500Y81500D02*
X838400D01*
X843400Y72500D02*
Y76500D01*
Y72500D02*
Y76500D01*
X812000Y164500D02*
X838400Y164500D01*
Y147500D02*
Y164500D01*
X817000Y169500D02*
X843400D01*
X817000Y189500D02*
X843400D01*
X817000Y169500D02*
Y189500D01*
X812000Y194500D02*
X838400D01*
X799000Y211500D02*
X838400Y211500D01*
X838400Y194500D01*
M02*
